M48
; DRILL file {KiCad 5.1.6+dfsg1-1} date Sun Oct 17 21:52:58 2021
; FORMAT={-:-/ absolute / metric / decimal}
; #@! TF.CreationDate,2021-10-17T21:52:58+02:00
; #@! TF.GenerationSoftware,Kicad,Pcbnew,5.1.6+dfsg1-1
; #@! TF.FileFunction,Plated,1,2,PTH
FMAT,2
METRIC
T1C0.400
T2C1.000
T3C1.020
%
G90
G05
T1
X131.4Y-96.7
X133.6Y-94.8
X133.8Y-96.5
X134.5Y-56.5
X137.5Y-93.2
X142.2Y-94.9
T2
X130.0Y-103.0
X132.54Y-103.0
X135.08Y-103.0
X137.62Y-103.0
X140.16Y-103.0
X142.7Y-103.0
X145.24Y-103.0
T3
X128.64Y-41.77
X128.64Y-44.31
X128.64Y-46.85
X128.64Y-49.39
X128.64Y-51.93
X128.64Y-54.47
X128.64Y-57.01
X128.64Y-59.55
X128.64Y-62.09
X128.64Y-64.63
X128.64Y-67.17
X128.64Y-69.71
X128.64Y-72.25
X128.64Y-74.79
X128.64Y-77.33
X128.64Y-79.87
X128.64Y-82.41
X128.64Y-84.95
X128.64Y-87.49
X128.64Y-90.03
X134.99Y-89.8
X137.53Y-89.8
X140.07Y-89.8
X146.42Y-41.77
X146.42Y-44.31
X146.42Y-46.85
X146.42Y-49.39
X146.42Y-51.93
X146.42Y-54.47
X146.42Y-57.01
X146.42Y-59.55
X146.42Y-62.09
X146.42Y-64.63
X146.42Y-67.17
X146.42Y-69.71
X146.42Y-72.25
X146.42Y-74.79
X146.42Y-77.33
X146.42Y-79.87
X146.42Y-82.41
X146.42Y-84.95
X146.42Y-87.49
X146.42Y-90.03
T0
M30
