G04 #@! TF.GenerationSoftware,KiCad,Pcbnew,5.1.6+dfsg1-1*
G04 #@! TF.CreationDate,2021-10-17T21:52:56+02:00*
G04 #@! TF.ProjectId,picoprobe-pcb,7069636f-7072-46f6-9265-2d7063622e6b,rev?*
G04 #@! TF.SameCoordinates,Original*
G04 #@! TF.FileFunction,Legend,Bot*
G04 #@! TF.FilePolarity,Positive*
%FSLAX46Y46*%
G04 Gerber Fmt 4.6, Leading zero omitted, Abs format (unit mm)*
G04 Created by KiCad (PCBNEW 5.1.6+dfsg1-1) date 2021-10-17 21:52:56*
%MOMM*%
%LPD*%
G01*
G04 APERTURE LIST*
%ADD10C,0.200000*%
%ADD11C,0.120000*%
%ADD12O,1.800000X1.800000*%
%ADD13R,1.800000X1.800000*%
%ADD14O,1.600000X1.600000*%
%ADD15O,1.900000X1.900000*%
G04 APERTURE END LIST*
D10*
X142523809Y-52502380D02*
X142523809Y-51502380D01*
X142142857Y-51502380D01*
X142047619Y-51550000D01*
X142000000Y-51597619D01*
X141952380Y-51692857D01*
X141952380Y-51835714D01*
X142000000Y-51930952D01*
X142047619Y-51978571D01*
X142142857Y-52026190D01*
X142523809Y-52026190D01*
X141523809Y-52502380D02*
X141523809Y-51835714D01*
X141523809Y-51502380D02*
X141571428Y-51550000D01*
X141523809Y-51597619D01*
X141476190Y-51550000D01*
X141523809Y-51502380D01*
X141523809Y-51597619D01*
X140619047Y-52454761D02*
X140714285Y-52502380D01*
X140904761Y-52502380D01*
X141000000Y-52454761D01*
X141047619Y-52407142D01*
X141095238Y-52311904D01*
X141095238Y-52026190D01*
X141047619Y-51930952D01*
X141000000Y-51883333D01*
X140904761Y-51835714D01*
X140714285Y-51835714D01*
X140619047Y-51883333D01*
X140047619Y-52502380D02*
X140142857Y-52454761D01*
X140190476Y-52407142D01*
X140238095Y-52311904D01*
X140238095Y-52026190D01*
X140190476Y-51930952D01*
X140142857Y-51883333D01*
X140047619Y-51835714D01*
X139904761Y-51835714D01*
X139809523Y-51883333D01*
X139761904Y-51930952D01*
X139714285Y-52026190D01*
X139714285Y-52311904D01*
X139761904Y-52407142D01*
X139809523Y-52454761D01*
X139904761Y-52502380D01*
X140047619Y-52502380D01*
X139285714Y-52502380D02*
X139285714Y-51502380D01*
X138904761Y-51502380D01*
X138809523Y-51550000D01*
X138761904Y-51597619D01*
X138714285Y-51692857D01*
X138714285Y-51835714D01*
X138761904Y-51930952D01*
X138809523Y-51978571D01*
X138904761Y-52026190D01*
X139285714Y-52026190D01*
X138285714Y-52502380D02*
X138285714Y-51835714D01*
X138285714Y-52026190D02*
X138238095Y-51930952D01*
X138190476Y-51883333D01*
X138095238Y-51835714D01*
X138000000Y-51835714D01*
X137523809Y-52502380D02*
X137619047Y-52454761D01*
X137666666Y-52407142D01*
X137714285Y-52311904D01*
X137714285Y-52026190D01*
X137666666Y-51930952D01*
X137619047Y-51883333D01*
X137523809Y-51835714D01*
X137380952Y-51835714D01*
X137285714Y-51883333D01*
X137238095Y-51930952D01*
X137190476Y-52026190D01*
X137190476Y-52311904D01*
X137238095Y-52407142D01*
X137285714Y-52454761D01*
X137380952Y-52502380D01*
X137523809Y-52502380D01*
X136761904Y-52502380D02*
X136761904Y-51502380D01*
X136761904Y-51883333D02*
X136666666Y-51835714D01*
X136476190Y-51835714D01*
X136380952Y-51883333D01*
X136333333Y-51930952D01*
X136285714Y-52026190D01*
X136285714Y-52311904D01*
X136333333Y-52407142D01*
X136380952Y-52454761D01*
X136476190Y-52502380D01*
X136666666Y-52502380D01*
X136761904Y-52454761D01*
X135476190Y-52454761D02*
X135571428Y-52502380D01*
X135761904Y-52502380D01*
X135857142Y-52454761D01*
X135904761Y-52359523D01*
X135904761Y-51978571D01*
X135857142Y-51883333D01*
X135761904Y-51835714D01*
X135571428Y-51835714D01*
X135476190Y-51883333D01*
X135428571Y-51978571D01*
X135428571Y-52073809D01*
X135904761Y-52169047D01*
X135000000Y-52502380D02*
X135000000Y-51502380D01*
X134619047Y-51502380D01*
X134523809Y-51550000D01*
X134476190Y-51597619D01*
X134428571Y-51692857D01*
X134428571Y-51835714D01*
X134476190Y-51930952D01*
X134523809Y-51978571D01*
X134619047Y-52026190D01*
X135000000Y-52026190D01*
X133428571Y-52407142D02*
X133476190Y-52454761D01*
X133619047Y-52502380D01*
X133714285Y-52502380D01*
X133857142Y-52454761D01*
X133952380Y-52359523D01*
X134000000Y-52264285D01*
X134047619Y-52073809D01*
X134047619Y-51930952D01*
X134000000Y-51740476D01*
X133952380Y-51645238D01*
X133857142Y-51550000D01*
X133714285Y-51502380D01*
X133619047Y-51502380D01*
X133476190Y-51550000D01*
X133428571Y-51597619D01*
X132666666Y-51978571D02*
X132523809Y-52026190D01*
X132476190Y-52073809D01*
X132428571Y-52169047D01*
X132428571Y-52311904D01*
X132476190Y-52407142D01*
X132523809Y-52454761D01*
X132619047Y-52502380D01*
X133000000Y-52502380D01*
X133000000Y-51502380D01*
X132666666Y-51502380D01*
X132571428Y-51550000D01*
X132523809Y-51597619D01*
X132476190Y-51692857D01*
X132476190Y-51788095D01*
X132523809Y-51883333D01*
X132571428Y-51930952D01*
X132666666Y-51978571D01*
X133000000Y-51978571D01*
X140190476Y-54202380D02*
X140190476Y-53535714D01*
X140190476Y-53726190D02*
X140142857Y-53630952D01*
X140095238Y-53583333D01*
X140000000Y-53535714D01*
X139904761Y-53535714D01*
X139190476Y-54154761D02*
X139285714Y-54202380D01*
X139476190Y-54202380D01*
X139571428Y-54154761D01*
X139619047Y-54059523D01*
X139619047Y-53678571D01*
X139571428Y-53583333D01*
X139476190Y-53535714D01*
X139285714Y-53535714D01*
X139190476Y-53583333D01*
X139142857Y-53678571D01*
X139142857Y-53773809D01*
X139619047Y-53869047D01*
X138809523Y-53535714D02*
X138571428Y-54202380D01*
X138333333Y-53535714D01*
X137952380Y-53821428D02*
X137190476Y-53821428D01*
X136190476Y-54202380D02*
X136761904Y-54202380D01*
X136476190Y-54202380D02*
X136476190Y-53202380D01*
X136571428Y-53345238D01*
X136666666Y-53440476D01*
X136761904Y-53488095D01*
X135761904Y-54107142D02*
X135714285Y-54154761D01*
X135761904Y-54202380D01*
X135809523Y-54154761D01*
X135761904Y-54107142D01*
X135761904Y-54202380D01*
X135095238Y-53202380D02*
X135000000Y-53202380D01*
X134904761Y-53250000D01*
X134857142Y-53297619D01*
X134809523Y-53392857D01*
X134761904Y-53583333D01*
X134761904Y-53821428D01*
X134809523Y-54011904D01*
X134857142Y-54107142D01*
X134904761Y-54154761D01*
X135000000Y-54202380D01*
X135095238Y-54202380D01*
X135190476Y-54154761D01*
X135238095Y-54107142D01*
X135285714Y-54011904D01*
X135333333Y-53821428D01*
X135333333Y-53583333D01*
X135285714Y-53392857D01*
X135238095Y-53297619D01*
X135190476Y-53250000D01*
X135095238Y-53202380D01*
X145752380Y-99414285D02*
X144752380Y-99414285D01*
X145752380Y-99985714D01*
X144752380Y-99985714D01*
X145657142Y-101033333D02*
X145704761Y-100985714D01*
X145752380Y-100842857D01*
X145752380Y-100747619D01*
X145704761Y-100604761D01*
X145609523Y-100509523D01*
X145514285Y-100461904D01*
X145323809Y-100414285D01*
X145180952Y-100414285D01*
X144990476Y-100461904D01*
X144895238Y-100509523D01*
X144800000Y-100604761D01*
X144752380Y-100747619D01*
X144752380Y-100842857D01*
X144800000Y-100985714D01*
X144847619Y-101033333D01*
X129552380Y-96904761D02*
X130552380Y-97238095D01*
X129552380Y-97571428D01*
X129552380Y-97761904D02*
X129552380Y-98333333D01*
X130552380Y-98047619D02*
X129552380Y-98047619D01*
X130552380Y-99238095D02*
X130076190Y-98904761D01*
X130552380Y-98666666D02*
X129552380Y-98666666D01*
X129552380Y-99047619D01*
X129600000Y-99142857D01*
X129647619Y-99190476D01*
X129742857Y-99238095D01*
X129885714Y-99238095D01*
X129980952Y-99190476D01*
X130028571Y-99142857D01*
X130076190Y-99047619D01*
X130076190Y-98666666D01*
X130028571Y-99666666D02*
X130028571Y-100000000D01*
X130552380Y-100142857D02*
X130552380Y-99666666D01*
X129552380Y-99666666D01*
X129552380Y-100142857D01*
X130028571Y-100904761D02*
X130028571Y-100571428D01*
X130552380Y-100571428D02*
X129552380Y-100571428D01*
X129552380Y-101047619D01*
X133004761Y-95538095D02*
X133052380Y-95680952D01*
X133052380Y-95919047D01*
X133004761Y-96014285D01*
X132957142Y-96061904D01*
X132861904Y-96109523D01*
X132766666Y-96109523D01*
X132671428Y-96061904D01*
X132623809Y-96014285D01*
X132576190Y-95919047D01*
X132528571Y-95728571D01*
X132480952Y-95633333D01*
X132433333Y-95585714D01*
X132338095Y-95538095D01*
X132242857Y-95538095D01*
X132147619Y-95585714D01*
X132100000Y-95633333D01*
X132052380Y-95728571D01*
X132052380Y-95966666D01*
X132100000Y-96109523D01*
X132052380Y-96442857D02*
X133052380Y-96680952D01*
X132338095Y-96871428D01*
X133052380Y-97061904D01*
X132052380Y-97300000D01*
X133052380Y-97680952D02*
X132052380Y-97680952D01*
X132052380Y-97919047D01*
X132100000Y-98061904D01*
X132195238Y-98157142D01*
X132290476Y-98204761D01*
X132480952Y-98252380D01*
X132623809Y-98252380D01*
X132814285Y-98204761D01*
X132909523Y-98157142D01*
X133004761Y-98061904D01*
X133052380Y-97919047D01*
X133052380Y-97680952D01*
X132957142Y-99252380D02*
X133004761Y-99204761D01*
X133052380Y-99061904D01*
X133052380Y-98966666D01*
X133004761Y-98823809D01*
X132909523Y-98728571D01*
X132814285Y-98680952D01*
X132623809Y-98633333D01*
X132480952Y-98633333D01*
X132290476Y-98680952D01*
X132195238Y-98728571D01*
X132100000Y-98823809D01*
X132052380Y-98966666D01*
X132052380Y-99061904D01*
X132100000Y-99204761D01*
X132147619Y-99252380D01*
X133052380Y-100157142D02*
X133052380Y-99680952D01*
X132052380Y-99680952D01*
X133052380Y-100490476D02*
X132052380Y-100490476D01*
X133052380Y-101061904D02*
X132480952Y-100633333D01*
X132052380Y-101061904D02*
X132623809Y-100490476D01*
X134600000Y-98938095D02*
X134552380Y-98842857D01*
X134552380Y-98700000D01*
X134600000Y-98557142D01*
X134695238Y-98461904D01*
X134790476Y-98414285D01*
X134980952Y-98366666D01*
X135123809Y-98366666D01*
X135314285Y-98414285D01*
X135409523Y-98461904D01*
X135504761Y-98557142D01*
X135552380Y-98700000D01*
X135552380Y-98795238D01*
X135504761Y-98938095D01*
X135457142Y-98985714D01*
X135123809Y-98985714D01*
X135123809Y-98795238D01*
X135552380Y-99414285D02*
X134552380Y-99414285D01*
X135552380Y-99985714D01*
X134552380Y-99985714D01*
X135552380Y-100461904D02*
X134552380Y-100461904D01*
X134552380Y-100700000D01*
X134600000Y-100842857D01*
X134695238Y-100938095D01*
X134790476Y-100985714D01*
X134980952Y-101033333D01*
X135123809Y-101033333D01*
X135314285Y-100985714D01*
X135409523Y-100938095D01*
X135504761Y-100842857D01*
X135552380Y-100700000D01*
X135552380Y-100461904D01*
X143104761Y-98219047D02*
X143152380Y-98361904D01*
X143152380Y-98600000D01*
X143104761Y-98695238D01*
X143057142Y-98742857D01*
X142961904Y-98790476D01*
X142866666Y-98790476D01*
X142771428Y-98742857D01*
X142723809Y-98695238D01*
X142676190Y-98600000D01*
X142628571Y-98409523D01*
X142580952Y-98314285D01*
X142533333Y-98266666D01*
X142438095Y-98219047D01*
X142342857Y-98219047D01*
X142247619Y-98266666D01*
X142200000Y-98314285D01*
X142152380Y-98409523D01*
X142152380Y-98647619D01*
X142200000Y-98790476D01*
X142152380Y-99123809D02*
X143152380Y-99361904D01*
X142438095Y-99552380D01*
X143152380Y-99742857D01*
X142152380Y-99980952D01*
X142152380Y-100552380D02*
X142152380Y-100742857D01*
X142200000Y-100838095D01*
X142295238Y-100933333D01*
X142485714Y-100980952D01*
X142819047Y-100980952D01*
X143009523Y-100933333D01*
X143104761Y-100838095D01*
X143152380Y-100742857D01*
X143152380Y-100552380D01*
X143104761Y-100457142D01*
X143009523Y-100361904D01*
X142819047Y-100314285D01*
X142485714Y-100314285D01*
X142295238Y-100361904D01*
X142200000Y-100457142D01*
X142152380Y-100552380D01*
X139520000Y-96538095D02*
X139520000Y-97538095D01*
X140952380Y-97347619D02*
X140476190Y-97014285D01*
X140952380Y-96776190D02*
X139952380Y-96776190D01*
X139952380Y-97157142D01*
X140000000Y-97252380D01*
X140047619Y-97300000D01*
X140142857Y-97347619D01*
X140285714Y-97347619D01*
X140380952Y-97300000D01*
X140428571Y-97252380D01*
X140476190Y-97157142D01*
X140476190Y-96776190D01*
X139520000Y-97538095D02*
X139520000Y-98442857D01*
X140428571Y-97776190D02*
X140428571Y-98109523D01*
X140952380Y-98252380D02*
X140952380Y-97776190D01*
X139952380Y-97776190D01*
X139952380Y-98252380D01*
X139520000Y-98442857D02*
X139520000Y-99395238D01*
X140904761Y-98633333D02*
X140952380Y-98776190D01*
X140952380Y-99014285D01*
X140904761Y-99109523D01*
X140857142Y-99157142D01*
X140761904Y-99204761D01*
X140666666Y-99204761D01*
X140571428Y-99157142D01*
X140523809Y-99109523D01*
X140476190Y-99014285D01*
X140428571Y-98823809D01*
X140380952Y-98728571D01*
X140333333Y-98680952D01*
X140238095Y-98633333D01*
X140142857Y-98633333D01*
X140047619Y-98680952D01*
X140000000Y-98728571D01*
X139952380Y-98823809D01*
X139952380Y-99061904D01*
X140000000Y-99204761D01*
X139520000Y-99395238D02*
X139520000Y-100300000D01*
X140428571Y-99633333D02*
X140428571Y-99966666D01*
X140952380Y-100109523D02*
X140952380Y-99633333D01*
X139952380Y-99633333D01*
X139952380Y-100109523D01*
X139520000Y-100300000D02*
X139520000Y-101061904D01*
X139952380Y-100395238D02*
X139952380Y-100966666D01*
X140952380Y-100680952D02*
X139952380Y-100680952D01*
X138104761Y-96880952D02*
X138152380Y-97023809D01*
X138152380Y-97261904D01*
X138104761Y-97357142D01*
X138057142Y-97404761D01*
X137961904Y-97452380D01*
X137866666Y-97452380D01*
X137771428Y-97404761D01*
X137723809Y-97357142D01*
X137676190Y-97261904D01*
X137628571Y-97071428D01*
X137580952Y-96976190D01*
X137533333Y-96928571D01*
X137438095Y-96880952D01*
X137342857Y-96880952D01*
X137247619Y-96928571D01*
X137200000Y-96976190D01*
X137152380Y-97071428D01*
X137152380Y-97309523D01*
X137200000Y-97452380D01*
X137152380Y-97785714D02*
X138152380Y-98023809D01*
X137438095Y-98214285D01*
X138152380Y-98404761D01*
X137152380Y-98642857D01*
X138152380Y-99023809D02*
X137152380Y-99023809D01*
X137152380Y-99261904D01*
X137200000Y-99404761D01*
X137295238Y-99500000D01*
X137390476Y-99547619D01*
X137580952Y-99595238D01*
X137723809Y-99595238D01*
X137914285Y-99547619D01*
X138009523Y-99500000D01*
X138104761Y-99404761D01*
X138152380Y-99261904D01*
X138152380Y-99023809D01*
X138152380Y-100023809D02*
X137152380Y-100023809D01*
X137152380Y-100690476D02*
X137152380Y-100880952D01*
X137200000Y-100976190D01*
X137295238Y-101071428D01*
X137485714Y-101119047D01*
X137819047Y-101119047D01*
X138009523Y-101071428D01*
X138104761Y-100976190D01*
X138152380Y-100880952D01*
X138152380Y-100690476D01*
X138104761Y-100595238D01*
X138009523Y-100500000D01*
X137819047Y-100452380D01*
X137485714Y-100452380D01*
X137295238Y-100500000D01*
X137200000Y-100595238D01*
X137152380Y-100690476D01*
D11*
X146570000Y-101670000D02*
X146570000Y-104330000D01*
X131270000Y-101670000D02*
X146570000Y-101670000D01*
X131270000Y-104330000D02*
X146570000Y-104330000D01*
X131270000Y-101670000D02*
X131270000Y-104330000D01*
X130000000Y-101670000D02*
X128670000Y-101670000D01*
X128670000Y-101670000D02*
X128670000Y-103000000D01*
%LPC*%
D12*
X145240000Y-103000000D03*
X142700000Y-103000000D03*
X140160000Y-103000000D03*
X137620000Y-103000000D03*
X135080000Y-103000000D03*
X132540000Y-103000000D03*
D13*
X130000000Y-103000000D03*
D12*
X140070000Y-89800000D03*
D13*
X137530000Y-89800000D03*
D12*
X134990000Y-89800000D03*
D14*
X139955000Y-44930000D03*
X135105000Y-44930000D03*
D15*
X140255000Y-41900000D03*
X134805000Y-41900000D03*
D12*
X146420000Y-41770000D03*
X146420000Y-44310000D03*
D13*
X146420000Y-46850000D03*
D12*
X146420000Y-49390000D03*
X146420000Y-51930000D03*
X146420000Y-54470000D03*
X146420000Y-57010000D03*
D13*
X146420000Y-59550000D03*
D12*
X146420000Y-62090000D03*
X146420000Y-64630000D03*
X146420000Y-67170000D03*
X146420000Y-69710000D03*
D13*
X146420000Y-72250000D03*
D12*
X146420000Y-74790000D03*
X146420000Y-77330000D03*
X146420000Y-79870000D03*
X146420000Y-82410000D03*
D13*
X146420000Y-84950000D03*
D12*
X146420000Y-87490000D03*
X146420000Y-90030000D03*
X128640000Y-90030000D03*
X128640000Y-87490000D03*
D13*
X128640000Y-84950000D03*
D12*
X128640000Y-82410000D03*
X128640000Y-79870000D03*
X128640000Y-77330000D03*
X128640000Y-74790000D03*
D13*
X128640000Y-72250000D03*
D12*
X128640000Y-69710000D03*
X128640000Y-67170000D03*
X128640000Y-64630000D03*
X128640000Y-62090000D03*
D13*
X128640000Y-59550000D03*
D12*
X128640000Y-57010000D03*
X128640000Y-54470000D03*
X128640000Y-51930000D03*
X128640000Y-49390000D03*
D13*
X128640000Y-46850000D03*
D12*
X128640000Y-44310000D03*
X128640000Y-41770000D03*
M02*
