G04 #@! TF.GenerationSoftware,KiCad,Pcbnew,5.1.6+dfsg1-1*
G04 #@! TF.CreationDate,2021-10-17T21:52:56+02:00*
G04 #@! TF.ProjectId,picoprobe-pcb,7069636f-7072-46f6-9265-2d7063622e6b,rev?*
G04 #@! TF.SameCoordinates,Original*
G04 #@! TF.FileFunction,Soldermask,Bot*
G04 #@! TF.FilePolarity,Negative*
%FSLAX46Y46*%
G04 Gerber Fmt 4.6, Leading zero omitted, Abs format (unit mm)*
G04 Created by KiCad (PCBNEW 5.1.6+dfsg1-1) date 2021-10-17 21:52:56*
%MOMM*%
%LPD*%
G01*
G04 APERTURE LIST*
%ADD10O,1.800000X1.800000*%
%ADD11R,1.800000X1.800000*%
%ADD12O,1.600000X1.600000*%
%ADD13O,1.900000X1.900000*%
G04 APERTURE END LIST*
D10*
X145240000Y-103000000D03*
X142700000Y-103000000D03*
X140160000Y-103000000D03*
X137620000Y-103000000D03*
X135080000Y-103000000D03*
X132540000Y-103000000D03*
D11*
X130000000Y-103000000D03*
D10*
X140070000Y-89800000D03*
D11*
X137530000Y-89800000D03*
D10*
X134990000Y-89800000D03*
D12*
X139955000Y-44930000D03*
X135105000Y-44930000D03*
D13*
X140255000Y-41900000D03*
X134805000Y-41900000D03*
D10*
X146420000Y-41770000D03*
X146420000Y-44310000D03*
D11*
X146420000Y-46850000D03*
D10*
X146420000Y-49390000D03*
X146420000Y-51930000D03*
X146420000Y-54470000D03*
X146420000Y-57010000D03*
D11*
X146420000Y-59550000D03*
D10*
X146420000Y-62090000D03*
X146420000Y-64630000D03*
X146420000Y-67170000D03*
X146420000Y-69710000D03*
D11*
X146420000Y-72250000D03*
D10*
X146420000Y-74790000D03*
X146420000Y-77330000D03*
X146420000Y-79870000D03*
X146420000Y-82410000D03*
D11*
X146420000Y-84950000D03*
D10*
X146420000Y-87490000D03*
X146420000Y-90030000D03*
X128640000Y-90030000D03*
X128640000Y-87490000D03*
D11*
X128640000Y-84950000D03*
D10*
X128640000Y-82410000D03*
X128640000Y-79870000D03*
X128640000Y-77330000D03*
X128640000Y-74790000D03*
D11*
X128640000Y-72250000D03*
D10*
X128640000Y-69710000D03*
X128640000Y-67170000D03*
X128640000Y-64630000D03*
X128640000Y-62090000D03*
D11*
X128640000Y-59550000D03*
D10*
X128640000Y-57010000D03*
X128640000Y-54470000D03*
X128640000Y-51930000D03*
X128640000Y-49390000D03*
D11*
X128640000Y-46850000D03*
D10*
X128640000Y-44310000D03*
X128640000Y-41770000D03*
M02*
