G04 #@! TF.GenerationSoftware,KiCad,Pcbnew,5.1.6+dfsg1-1*
G04 #@! TF.CreationDate,2021-10-17T21:52:56+02:00*
G04 #@! TF.ProjectId,picoprobe-pcb,7069636f-7072-46f6-9265-2d7063622e6b,rev?*
G04 #@! TF.SameCoordinates,Original*
G04 #@! TF.FileFunction,Legend,Top*
G04 #@! TF.FilePolarity,Positive*
%FSLAX46Y46*%
G04 Gerber Fmt 4.6, Leading zero omitted, Abs format (unit mm)*
G04 Created by KiCad (PCBNEW 5.1.6+dfsg1-1) date 2021-10-17 21:52:56*
%MOMM*%
%LPD*%
G01*
G04 APERTURE LIST*
%ADD10C,0.120000*%
%ADD11O,1.800000X1.800000*%
%ADD12R,1.800000X1.800000*%
%ADD13R,0.860000X1.850000*%
%ADD14O,0.860000X1.850000*%
%ADD15R,1.800000X3.600000*%
%ADD16O,1.600000X1.600000*%
%ADD17O,1.900000X1.900000*%
%ADD18R,3.600000X1.800000*%
G04 APERTURE END LIST*
D10*
X134000000Y-100500000D02*
X136500000Y-100500000D01*
X138500000Y-100500000D02*
X141000000Y-100500000D01*
X138500000Y-101600000D02*
X138500000Y-100500000D01*
X136500000Y-101600000D02*
X138500000Y-101600000D01*
X136500000Y-100500000D02*
X136500000Y-101600000D01*
X138630000Y-91400000D02*
X139030000Y-91400000D01*
X136030000Y-91400000D02*
X136430000Y-91400000D01*
X148030000Y-91400000D02*
X141230000Y-91400000D01*
X148030000Y-81000000D02*
X148030000Y-81400000D01*
X148030000Y-73300000D02*
X148030000Y-73700000D01*
X148030000Y-47900000D02*
X148030000Y-48300000D01*
X148030000Y-40400000D02*
X148030000Y-40700000D01*
X148030000Y-63200000D02*
X148030000Y-63600000D01*
X148030000Y-78400000D02*
X148030000Y-78800000D01*
X148030000Y-58100000D02*
X148030000Y-58500000D01*
X148030000Y-53000000D02*
X148030000Y-53400000D01*
X148030000Y-65700000D02*
X148030000Y-66100000D01*
X148030000Y-70800000D02*
X148030000Y-71200000D01*
X148030000Y-86000000D02*
X148030000Y-86400000D01*
X148030000Y-88600000D02*
X148030000Y-89000000D01*
X148030000Y-83500000D02*
X148030000Y-83900000D01*
X148030000Y-50500000D02*
X148030000Y-50900000D01*
X148030000Y-42800000D02*
X148030000Y-43200000D01*
X148030000Y-45400000D02*
X148030000Y-45800000D01*
X148030000Y-75900000D02*
X148030000Y-76300000D01*
X148030000Y-68200000D02*
X148030000Y-68600000D01*
X148030000Y-60600000D02*
X148030000Y-61000000D01*
X148030000Y-55500000D02*
X148030000Y-55900000D01*
X127030000Y-88600000D02*
X127030000Y-89000000D01*
X127030000Y-86000000D02*
X127030000Y-86400000D01*
X127030000Y-83500000D02*
X127030000Y-83900000D01*
X127030000Y-81000000D02*
X127030000Y-81400000D01*
X127030000Y-78400000D02*
X127030000Y-78800000D01*
X127030000Y-75900000D02*
X127030000Y-76300000D01*
X127030000Y-73300000D02*
X127030000Y-73700000D01*
X127030000Y-70800000D02*
X127030000Y-71200000D01*
X127030000Y-68200000D02*
X127030000Y-68600000D01*
X127030000Y-65700000D02*
X127030000Y-66100000D01*
X127030000Y-63200000D02*
X127030000Y-63600000D01*
X127030000Y-60600000D02*
X127030000Y-61000000D01*
X127030000Y-58100000D02*
X127030000Y-58500000D01*
X127030000Y-55500000D02*
X127030000Y-55900000D01*
X127030000Y-53000000D02*
X127030000Y-53400000D01*
X127030000Y-50500000D02*
X127030000Y-50900000D01*
X127030000Y-47900000D02*
X127030000Y-48300000D01*
X127030000Y-45400000D02*
X127030000Y-45800000D01*
X127030000Y-42800000D02*
X127030000Y-43200000D01*
X127030000Y-40400000D02*
X127030000Y-40700000D01*
X130037000Y-43067000D02*
X130037000Y-40400000D01*
X127030000Y-43067000D02*
X130037000Y-43067000D01*
X133830000Y-91400000D02*
X127030000Y-91400000D01*
X127030000Y-40400000D02*
X148030000Y-40400000D01*
%LPC*%
D11*
X145240000Y-103000000D03*
X142700000Y-103000000D03*
X140160000Y-103000000D03*
X137620000Y-103000000D03*
X135080000Y-103000000D03*
X132540000Y-103000000D03*
D12*
X130000000Y-103000000D03*
D13*
X140080000Y-94825000D03*
X140080000Y-99175000D03*
X138810000Y-94825000D03*
X138810000Y-99175000D03*
X137540000Y-94825000D03*
X137540000Y-99175000D03*
X136270000Y-94825000D03*
X136270000Y-99175000D03*
X135000000Y-94825000D03*
D14*
X135000000Y-99175000D03*
D11*
X140070000Y-89800000D03*
D15*
X140070000Y-90700000D03*
D12*
X137530000Y-89800000D03*
D15*
X137530000Y-90700000D03*
D11*
X134990000Y-89800000D03*
D15*
X134990000Y-90700000D03*
D16*
X139955000Y-44930000D03*
X135105000Y-44930000D03*
D17*
X140255000Y-41900000D03*
X134805000Y-41900000D03*
D18*
X147320000Y-90030000D03*
X147320000Y-87490000D03*
X147320000Y-84950000D03*
X147320000Y-82410000D03*
X147320000Y-79870000D03*
X147320000Y-77330000D03*
X147320000Y-74790000D03*
X147320000Y-72250000D03*
X147320000Y-69710000D03*
X147320000Y-67170000D03*
X147320000Y-64630000D03*
X147320000Y-62090000D03*
X147320000Y-59550000D03*
X147320000Y-57010000D03*
X147320000Y-54470000D03*
X147320000Y-51930000D03*
X147320000Y-49390000D03*
X147320000Y-46850000D03*
X147320000Y-44310000D03*
X147320000Y-41770000D03*
X127740000Y-90030000D03*
X127740000Y-87490000D03*
X127740000Y-84950000D03*
X127740000Y-82410000D03*
X127740000Y-79870000D03*
X127740000Y-77330000D03*
X127740000Y-74790000D03*
X127740000Y-72250000D03*
X127740000Y-69710000D03*
X127740000Y-67170000D03*
X127740000Y-64630000D03*
X127740000Y-62090000D03*
X127740000Y-59550000D03*
X127740000Y-57010000D03*
X127740000Y-54470000D03*
X127740000Y-51930000D03*
X127740000Y-49390000D03*
X127740000Y-46850000D03*
X127740000Y-44310000D03*
X127740000Y-41770000D03*
D11*
X146420000Y-41770000D03*
X146420000Y-44310000D03*
D12*
X146420000Y-46850000D03*
D11*
X146420000Y-49390000D03*
X146420000Y-51930000D03*
X146420000Y-54470000D03*
X146420000Y-57010000D03*
D12*
X146420000Y-59550000D03*
D11*
X146420000Y-62090000D03*
X146420000Y-64630000D03*
X146420000Y-67170000D03*
X146420000Y-69710000D03*
D12*
X146420000Y-72250000D03*
D11*
X146420000Y-74790000D03*
X146420000Y-77330000D03*
X146420000Y-79870000D03*
X146420000Y-82410000D03*
D12*
X146420000Y-84950000D03*
D11*
X146420000Y-87490000D03*
X146420000Y-90030000D03*
X128640000Y-90030000D03*
X128640000Y-87490000D03*
D12*
X128640000Y-84950000D03*
D11*
X128640000Y-82410000D03*
X128640000Y-79870000D03*
X128640000Y-77330000D03*
X128640000Y-74790000D03*
D12*
X128640000Y-72250000D03*
D11*
X128640000Y-69710000D03*
X128640000Y-67170000D03*
X128640000Y-64630000D03*
X128640000Y-62090000D03*
D12*
X128640000Y-59550000D03*
D11*
X128640000Y-57010000D03*
X128640000Y-54470000D03*
X128640000Y-51930000D03*
X128640000Y-49390000D03*
D12*
X128640000Y-46850000D03*
D11*
X128640000Y-44310000D03*
X128640000Y-41770000D03*
M02*
