G04 #@! TF.GenerationSoftware,KiCad,Pcbnew,5.1.6+dfsg1-1*
G04 #@! TF.CreationDate,2021-10-17T21:52:56+02:00*
G04 #@! TF.ProjectId,picoprobe-pcb,7069636f-7072-46f6-9265-2d7063622e6b,rev?*
G04 #@! TF.SameCoordinates,Original*
G04 #@! TF.FileFunction,Copper,L1,Top*
G04 #@! TF.FilePolarity,Positive*
%FSLAX46Y46*%
G04 Gerber Fmt 4.6, Leading zero omitted, Abs format (unit mm)*
G04 Created by KiCad (PCBNEW 5.1.6+dfsg1-1) date 2021-10-17 21:52:56*
%MOMM*%
%LPD*%
G01*
G04 APERTURE LIST*
G04 #@! TA.AperFunction,ComponentPad*
%ADD10O,1.700000X1.700000*%
G04 #@! TD*
G04 #@! TA.AperFunction,ComponentPad*
%ADD11R,1.700000X1.700000*%
G04 #@! TD*
G04 #@! TA.AperFunction,SMDPad,CuDef*
%ADD12R,0.760000X1.750000*%
G04 #@! TD*
G04 #@! TA.AperFunction,SMDPad,CuDef*
%ADD13O,0.760000X1.750000*%
G04 #@! TD*
G04 #@! TA.AperFunction,SMDPad,CuDef*
%ADD14R,1.700000X3.500000*%
G04 #@! TD*
G04 #@! TA.AperFunction,SMDPad,CuDef*
%ADD15R,3.500000X1.700000*%
G04 #@! TD*
G04 #@! TA.AperFunction,ViaPad*
%ADD16C,0.800000*%
G04 #@! TD*
G04 #@! TA.AperFunction,Conductor*
%ADD17C,0.250000*%
G04 #@! TD*
G04 APERTURE END LIST*
D10*
X145240000Y-103000000D03*
X142700000Y-103000000D03*
X140160000Y-103000000D03*
X137620000Y-103000000D03*
X135080000Y-103000000D03*
X132540000Y-103000000D03*
D11*
X130000000Y-103000000D03*
D12*
X140080000Y-94825000D03*
X140080000Y-99175000D03*
X138810000Y-94825000D03*
X138810000Y-99175000D03*
X137540000Y-94825000D03*
X137540000Y-99175000D03*
X136270000Y-94825000D03*
X136270000Y-99175000D03*
X135000000Y-94825000D03*
D13*
X135000000Y-99175000D03*
D10*
X140070000Y-89800000D03*
D14*
X140070000Y-90700000D03*
D11*
X137530000Y-89800000D03*
D14*
X137530000Y-90700000D03*
D10*
X134990000Y-89800000D03*
D14*
X134990000Y-90700000D03*
D15*
X147320000Y-90030000D03*
X147320000Y-87490000D03*
X147320000Y-84950000D03*
X147320000Y-82410000D03*
X147320000Y-79870000D03*
X147320000Y-77330000D03*
X147320000Y-74790000D03*
X147320000Y-72250000D03*
X147320000Y-69710000D03*
X147320000Y-67170000D03*
X147320000Y-64630000D03*
X147320000Y-62090000D03*
X147320000Y-59550000D03*
X147320000Y-57010000D03*
X147320000Y-54470000D03*
X147320000Y-51930000D03*
X147320000Y-49390000D03*
X147320000Y-46850000D03*
X147320000Y-44310000D03*
X147320000Y-41770000D03*
X127740000Y-90030000D03*
X127740000Y-87490000D03*
X127740000Y-84950000D03*
X127740000Y-82410000D03*
X127740000Y-79870000D03*
X127740000Y-77330000D03*
X127740000Y-74790000D03*
X127740000Y-72250000D03*
X127740000Y-69710000D03*
X127740000Y-67170000D03*
X127740000Y-64630000D03*
X127740000Y-62090000D03*
X127740000Y-59550000D03*
X127740000Y-57010000D03*
X127740000Y-54470000D03*
X127740000Y-51930000D03*
X127740000Y-49390000D03*
X127740000Y-46850000D03*
X127740000Y-44310000D03*
X127740000Y-41770000D03*
D10*
X146420000Y-41770000D03*
X146420000Y-44310000D03*
D11*
X146420000Y-46850000D03*
D10*
X146420000Y-49390000D03*
X146420000Y-51930000D03*
X146420000Y-54470000D03*
X146420000Y-57010000D03*
D11*
X146420000Y-59550000D03*
D10*
X146420000Y-62090000D03*
X146420000Y-64630000D03*
X146420000Y-67170000D03*
X146420000Y-69710000D03*
D11*
X146420000Y-72250000D03*
D10*
X146420000Y-74790000D03*
X146420000Y-77330000D03*
X146420000Y-79870000D03*
X146420000Y-82410000D03*
D11*
X146420000Y-84950000D03*
D10*
X146420000Y-87490000D03*
X146420000Y-90030000D03*
X128640000Y-90030000D03*
X128640000Y-87490000D03*
D11*
X128640000Y-84950000D03*
D10*
X128640000Y-82410000D03*
X128640000Y-79870000D03*
X128640000Y-77330000D03*
X128640000Y-74790000D03*
D11*
X128640000Y-72250000D03*
D10*
X128640000Y-69710000D03*
X128640000Y-67170000D03*
X128640000Y-64630000D03*
X128640000Y-62090000D03*
D11*
X128640000Y-59550000D03*
D10*
X128640000Y-57010000D03*
X128640000Y-54470000D03*
X128640000Y-51930000D03*
X128640000Y-49390000D03*
D11*
X128640000Y-46850000D03*
D10*
X128640000Y-44310000D03*
X128640000Y-41770000D03*
D16*
X134500000Y-56500000D03*
X142200000Y-94900000D03*
X133600000Y-94800000D03*
X133800000Y-96500000D03*
X131400000Y-96699988D03*
X137500000Y-93199994D03*
D17*
X142000000Y-64000000D02*
X134500000Y-56500000D01*
X142000000Y-92905000D02*
X142000000Y-64000000D01*
X140080000Y-94825000D02*
X142000000Y-92905000D01*
X142125000Y-94825000D02*
X142200000Y-94900000D01*
X140080000Y-94825000D02*
X142125000Y-94825000D01*
X135000000Y-94825000D02*
X131549989Y-91374989D01*
X131549989Y-91374989D02*
X131549989Y-54839989D01*
X131549989Y-54839989D02*
X128640000Y-51930000D01*
X134975000Y-94800000D02*
X135000000Y-94825000D01*
X133600000Y-94800000D02*
X134975000Y-94800000D01*
X136270000Y-101810000D02*
X136270000Y-99175000D01*
X135080000Y-103000000D02*
X136270000Y-101810000D01*
X136270000Y-99175000D02*
X137540000Y-99175000D01*
X133051999Y-97225001D02*
X135445001Y-97225001D01*
X136270000Y-98050000D02*
X136270000Y-99175000D01*
X135445001Y-97225001D02*
X136270000Y-98050000D01*
X131099978Y-62009978D02*
X131099978Y-95272980D01*
X131099978Y-95272980D02*
X133051999Y-97225001D01*
X128640000Y-59550000D02*
X131099978Y-62009978D01*
X134104998Y-93000000D02*
X135570000Y-93000000D01*
X132000000Y-52750000D02*
X132000000Y-90895002D01*
X136270000Y-93700000D02*
X136270000Y-94825000D01*
X132000000Y-90895002D02*
X134104998Y-93000000D01*
X135570000Y-93000000D02*
X136270000Y-93700000D01*
X128640000Y-49390000D02*
X132000000Y-52750000D01*
X136270000Y-94825000D02*
X136270000Y-95950000D01*
X136270000Y-95950000D02*
X135720000Y-96500000D01*
X135720000Y-96500000D02*
X133800000Y-96500000D01*
X133825000Y-99175000D02*
X135000000Y-99175000D01*
X130000000Y-103000000D02*
X133825000Y-99175000D01*
X135000000Y-99175000D02*
X133875012Y-99175000D01*
X133875012Y-99175000D02*
X131400000Y-96699988D01*
X142700000Y-100077000D02*
X140448001Y-97825001D01*
X139415001Y-97825001D02*
X137540000Y-95950000D01*
X142700000Y-103000000D02*
X142700000Y-100077000D01*
X140448001Y-97825001D02*
X139415001Y-97825001D01*
X137540000Y-95950000D02*
X137540000Y-94825000D01*
X137540000Y-94825000D02*
X137540000Y-93239994D01*
X137540000Y-93239994D02*
X137500000Y-93199994D01*
M02*
